<svg width="181" height="51" viewBox="0 0 181 51" fill="none" xmlns="http://www.w3.org/2000/svg">
<path d="M2.00293 19.9301H8.89032V25.123C8.89032 28.6477 10.5429 30.683 13.8107 30.683C17.0786 30.683 18.808 28.6429 18.808 25.123V19.9301H25.6978V25.0822C25.6978 33.3197 20.2181 37.394 13.6967 37.394C7.12857 37.394 2.01133 33.3197 2.01133 25.0822V19.9301H2.00293Z" fill="#E5CDA0"/>
<path d="M25.6916 9.34158H18.8066V16.223H25.6916V9.34158Z" fill="white"/>
<path d="M11.8903 9.34158H8.2168H2.00146V16.223H8.2168H11.8903H15.1018V9.34158H11.8903Z" fill="#E5CDA0"/>
<path d="M39.0659 18.0805V31.6773H37.2907V18.0805H39.0659ZM52.7816 31.6773H51.0064L43.8666 20.8506V31.6773H42.0914V18.061H43.8666L51.0064 28.8682V18.061H52.7816V31.6773ZM60.1189 31.8139C59.2216 31.8139 58.4152 31.6578 57.7 31.3457C56.9977 31.0206 56.445 30.5784 56.0418 30.0192C55.6387 29.447 55.4306 28.7902 55.4176 28.0489H57.3098C57.3748 28.6862 57.6349 29.2259 58.0901 29.668C58.5583 30.0972 59.2346 30.3118 60.1189 30.3118C60.9642 30.3118 61.6275 30.1037 62.1087 29.6876C62.6029 29.2584 62.85 28.7122 62.85 28.0489C62.85 27.5287 62.7069 27.106 62.4208 26.7809C62.1347 26.4558 61.7771 26.2087 61.3479 26.0396C60.9187 25.8706 60.34 25.6885 59.6117 25.4934C58.7144 25.2593 57.9926 25.0252 57.4464 24.7911C56.9132 24.557 56.4515 24.1929 56.0613 23.6987C55.6842 23.1915 55.4956 22.5152 55.4956 21.6699C55.4956 20.9286 55.6842 20.2718 56.0613 19.6996C56.4385 19.1274 56.9652 18.6852 57.6414 18.3731C58.3307 18.061 59.1175 17.9049 60.0019 17.9049C61.2764 17.9049 62.3168 18.2235 63.1231 18.8608C63.9424 19.498 64.4041 20.3434 64.5081 21.3968H62.5574C62.4923 20.8766 62.2192 20.4214 61.7381 20.0313C61.2569 19.6281 60.6196 19.4265 59.8263 19.4265C59.085 19.4265 58.4803 19.6216 58.0121 20.0117C57.5439 20.3889 57.3098 20.9221 57.3098 21.6114C57.3098 22.1056 57.4464 22.5087 57.7195 22.8209C58.0056 23.133 58.3502 23.3736 58.7534 23.5426C59.1695 23.6987 59.7483 23.8808 60.4896 24.0889C61.3869 24.3359 62.1087 24.583 62.6549 24.8301C63.2011 25.0642 63.6693 25.4349 64.0595 25.9421C64.4496 26.4363 64.6447 27.1125 64.6447 27.9709C64.6447 28.6341 64.4691 29.2584 64.118 29.8436C63.7668 30.4288 63.2466 30.9035 62.5574 31.2677C61.8681 31.6318 61.0553 31.8139 60.1189 31.8139ZM75.6258 18.0805V19.5241H71.9194V31.6773H70.1442V19.5241H66.4182V18.0805H75.6258ZM85.8482 28.6536H79.9178L78.8254 31.6773H76.9527L81.8686 18.1585H83.9169L88.8133 31.6773H86.9406L85.8482 28.6536ZM85.341 27.2101L82.883 20.3434L80.425 27.2101H85.341ZM90.2926 24.8692C90.2926 23.5426 90.5917 22.3527 91.1899 21.2993C91.7882 20.2328 92.601 19.4005 93.6284 18.8023C94.6688 18.204 95.8197 17.9049 97.0812 17.9049C98.5638 17.9049 99.8578 18.2626 100.963 18.9778C102.069 19.6931 102.875 20.7075 103.382 22.021H101.256C100.879 21.2017 100.333 20.571 99.6172 20.1288C98.915 19.6866 98.0696 19.4655 97.0812 19.4655C96.1319 19.4655 95.28 19.6866 94.5257 20.1288C93.7714 20.571 93.1797 21.2017 92.7505 22.021C92.3214 22.8274 92.1068 23.7767 92.1068 24.8692C92.1068 25.9486 92.3214 26.898 92.7505 27.7173C93.1797 28.5236 93.7714 29.1478 94.5257 29.59C95.28 30.0322 96.1319 30.2533 97.0812 30.2533C98.0696 30.2533 98.915 30.0387 99.6172 29.6095C100.333 29.1673 100.879 28.5366 101.256 27.7173H103.382C102.875 29.0178 102.069 30.0257 100.963 30.741C99.8578 31.4432 98.5638 31.7944 97.0812 31.7944C95.8197 31.7944 94.6688 31.5018 93.6284 30.9165C92.601 30.3183 91.7882 29.4925 91.1899 28.4391C90.5917 27.3856 90.2926 26.1957 90.2926 24.8692ZM107.8 30.2338H112.56V31.6773H106.025V18.0805H107.8V30.2338ZM122.482 28.6536H116.552L115.459 31.6773H113.587L118.503 18.1585H120.551L125.447 31.6773H123.575L122.482 28.6536ZM121.975 27.2101L119.517 20.3434L117.059 27.2101H121.975ZM129.326 18.0805V26.6834C129.326 27.8928 129.619 28.7902 130.204 29.3754C130.802 29.9607 131.628 30.2533 132.681 30.2533C133.722 30.2533 134.535 29.9607 135.12 29.3754C135.718 28.7902 136.017 27.8928 136.017 26.6834V18.0805H137.792V26.6639C137.792 27.7953 137.565 28.7512 137.11 29.5315C136.654 30.2988 136.037 30.871 135.256 31.2482C134.489 31.6253 133.624 31.8139 132.662 31.8139C131.699 31.8139 130.828 31.6253 130.048 31.2482C129.281 30.871 128.669 30.2988 128.214 29.5315C127.772 28.7512 127.551 27.7953 127.551 26.6639V18.0805H129.326ZM145.065 31.8139C144.168 31.8139 143.361 31.6578 142.646 31.3457C141.944 31.0206 141.391 30.5784 140.988 30.0192C140.585 29.447 140.377 28.7902 140.364 28.0489H142.256C142.321 28.6862 142.581 29.2259 143.036 29.668C143.504 30.0972 144.181 30.3118 145.065 30.3118C145.91 30.3118 146.574 30.1037 147.055 29.6876C147.549 29.2584 147.796 28.7122 147.796 28.0489C147.796 27.5287 147.653 27.106 147.367 26.7809C147.081 26.4558 146.723 26.2087 146.294 26.0396C145.865 25.8706 145.286 25.6885 144.558 25.4934C143.66 25.2593 142.939 25.0252 142.392 24.7911C141.859 24.557 141.398 24.1929 141.007 23.6987C140.63 23.1915 140.442 22.5152 140.442 21.6699C140.442 20.9286 140.63 20.2718 141.007 19.6996C141.384 19.1274 141.911 18.6852 142.587 18.3731C143.277 18.061 144.064 17.9049 144.948 17.9049C146.222 17.9049 147.263 18.2235 148.069 18.8608C148.888 19.498 149.35 20.3434 149.454 21.3968H147.503C147.438 20.8766 147.165 20.4214 146.684 20.0313C146.203 19.6281 145.566 19.4265 144.772 19.4265C144.031 19.4265 143.426 19.6216 142.958 20.0117C142.49 20.3889 142.256 20.9221 142.256 21.6114C142.256 22.1056 142.392 22.5087 142.665 22.8209C142.952 23.133 143.296 23.3736 143.699 23.5426C144.116 23.6987 144.694 23.8808 145.436 24.0889C146.333 24.3359 147.055 24.583 147.601 24.8301C148.147 25.0642 148.615 25.4349 149.005 25.9421C149.396 26.4363 149.591 27.1125 149.591 27.9709C149.591 28.6341 149.415 29.2584 149.064 29.8436C148.713 30.4288 148.193 30.9035 147.503 31.2677C146.814 31.6318 146.001 31.8139 145.065 31.8139Z" fill="white"/>
</svg>
