<svg width="204" height="69" viewBox="0 0 204 69" fill="none" xmlns="http://www.w3.org/2000/svg">
<path d="M2.26978 27.1317H10.0748V34.201C10.0748 38.9993 11.9475 41.7702 15.6508 41.7702C19.3541 41.7702 21.3139 38.9928 21.3139 34.201V27.1317H29.1216V34.1454C29.1216 45.3595 22.9119 50.9061 15.5216 50.9061C8.07834 50.9061 2.2793 45.3595 2.2793 34.1454V27.1317H2.26978Z" fill="#1B686A"/>
<path d="M29.1151 12.7172H21.3127V22.0851H29.1151V12.7172Z" fill="#DFC188"/>
<path d="M13.4747 12.7172H9.31175H2.26831V22.0851H9.31175H13.4747H17.1141V12.7172H13.4747Z" fill="#1B686A"/>
<path d="M45.0182 25.0255V43.5355H42.6015V25.0255H45.0182ZM63.69 43.5355H61.2733L51.5536 28.7966V43.5355H49.1369V24.999H51.5536L61.2733 39.7114V24.999H63.69V43.5355ZM73.6786 43.7214C72.457 43.7214 71.3593 43.509 70.3856 43.0841C69.4296 42.6414 68.6771 42.0395 68.1283 41.2782C67.5794 40.4992 67.2962 39.6051 67.2785 38.596H69.8545C69.943 39.4635 70.2971 40.1982 70.9167 40.8002C71.5541 41.3844 72.4747 41.6766 73.6786 41.6766C74.8294 41.6766 75.7323 41.3933 76.3874 40.8267C77.0602 40.2425 77.3966 39.4989 77.3966 38.596C77.3966 37.8878 77.2018 37.3124 76.8123 36.8698C76.4228 36.4272 75.936 36.0908 75.3517 35.8606C74.7675 35.6305 73.9796 35.3826 72.9882 35.1171C71.7666 34.7984 70.784 34.4797 70.0404 34.161C69.3145 33.8423 68.686 33.3466 68.1548 32.6738C67.6414 31.9834 67.3847 31.0627 67.3847 29.9119C67.3847 28.9028 67.6414 28.0087 68.1548 27.2297C68.6683 26.4507 69.3853 25.8488 70.3059 25.4239C71.2443 24.999 72.3154 24.7865 73.5193 24.7865C75.2543 24.7865 76.6707 25.2203 77.7684 26.0878C78.8837 26.9553 79.5123 28.1061 79.6539 29.5402H76.9982C76.9097 28.832 76.5379 28.2123 75.8828 27.6812C75.2278 27.1323 74.3603 26.8579 73.2803 26.8579C72.2711 26.8579 71.4479 27.1235 70.8105 27.6546C70.1731 28.1681 69.8545 28.8939 69.8545 29.8323C69.8545 30.505 70.0404 31.0539 70.4122 31.4788C70.8017 31.9037 71.2708 32.2312 71.8197 32.4614C72.3862 32.6738 73.1741 32.9217 74.1832 33.205C75.4048 33.5414 76.3874 33.8777 77.131 34.2141C77.8746 34.5328 78.5119 35.0374 79.0431 35.7279C79.5742 36.4006 79.8398 37.3213 79.8398 38.4898C79.8398 39.3927 79.6008 40.2425 79.1228 41.0392C78.6447 41.8359 77.9366 42.4821 76.9982 42.9778C76.0599 43.4736 74.9534 43.7214 73.6786 43.7214ZM94.7889 25.0255V26.9907H89.7431V43.5355H87.3265V26.9907H82.2542V25.0255H94.7889ZM108.705 39.4192H100.632L99.1446 43.5355H96.5952L103.287 25.1317H106.076L112.742 43.5355H110.192L108.705 39.4192ZM108.015 37.454L104.668 28.1061L101.322 37.454H108.015ZM114.755 34.2672C114.755 32.4614 115.163 30.8414 115.977 29.4074C116.791 27.9556 117.898 26.8225 119.297 26.0081C120.713 25.1937 122.28 24.7865 123.997 24.7865C126.015 24.7865 127.777 25.2734 129.282 26.2471C130.787 27.2209 131.884 28.6018 132.575 30.39H129.68C129.167 29.2746 128.423 28.4159 127.449 27.814C126.493 27.212 125.343 26.911 123.997 26.911C122.705 26.911 121.545 27.212 120.518 27.814C119.491 28.4159 118.686 29.2746 118.102 30.39C117.517 31.4876 117.225 32.7801 117.225 34.2672C117.225 35.7367 117.517 37.0291 118.102 38.1445C118.686 39.2422 119.491 40.092 120.518 40.694C121.545 41.2959 122.705 41.5969 123.997 41.5969C125.343 41.5969 126.493 41.3048 127.449 40.7205C128.423 40.1186 129.167 39.2599 129.68 38.1445H132.575C131.884 39.915 130.787 41.2871 129.282 42.2608C127.777 43.2168 126.015 43.6949 123.997 43.6949C122.28 43.6949 120.713 43.2965 119.297 42.4998C117.898 41.6854 116.791 40.5612 115.977 39.1271C115.163 37.6931 114.755 36.0731 114.755 34.2672ZM138.589 41.5703H145.069V43.5355H136.172V25.0255H138.589V41.5703ZM158.577 39.4192H150.503L149.016 43.5355H146.467L153.159 25.1317H155.947L162.613 43.5355H160.064L158.577 39.4192ZM157.886 37.454L154.54 28.1061L151.194 37.454H157.886ZM167.893 25.0255V36.737C167.893 38.3835 168.292 39.6051 169.088 40.4018C169.903 41.1985 171.027 41.5969 172.461 41.5969C173.878 41.5969 174.984 41.1985 175.781 40.4018C176.595 39.6051 177.002 38.3835 177.002 36.737V25.0255H179.419V36.7105C179.419 38.2507 179.109 39.552 178.49 40.6143C177.87 41.6589 177.029 42.4378 175.967 42.9513C174.922 43.4647 173.745 43.7214 172.435 43.7214C171.125 43.7214 169.938 43.4647 168.876 42.9513C167.831 42.4378 166.999 41.6589 166.38 40.6143C165.778 39.552 165.477 38.2507 165.477 36.7105V25.0255H167.893ZM189.32 43.7214C188.098 43.7214 187 43.509 186.026 43.0841C185.07 42.6414 184.318 42.0395 183.769 41.2782C183.22 40.4992 182.937 39.6051 182.919 38.596H185.495C185.584 39.4635 185.938 40.1982 186.558 40.8002C187.195 41.3844 188.116 41.6766 189.32 41.6766C190.47 41.6766 191.373 41.3933 192.028 40.8267C192.701 40.2425 193.037 39.4989 193.037 38.596C193.037 37.8878 192.843 37.3124 192.453 36.8698C192.064 36.4272 191.577 36.0908 190.993 35.8606C190.408 35.6305 189.62 35.3826 188.629 35.1171C187.407 34.7984 186.425 34.4797 185.681 34.161C184.955 33.8423 184.327 33.3466 183.796 32.6738C183.282 31.9834 183.026 31.0627 183.026 29.9119C183.026 28.9028 183.282 28.0087 183.796 27.2297C184.309 26.4507 185.026 25.8488 185.947 25.4239C186.885 24.999 187.956 24.7865 189.16 24.7865C190.895 24.7865 192.312 25.2203 193.409 26.0878C194.525 26.9553 195.153 28.1061 195.295 29.5402H192.639C192.551 28.832 192.179 28.2123 191.524 27.6812C190.869 27.1323 190.001 26.8579 188.921 26.8579C187.912 26.8579 187.089 27.1235 186.451 27.6546C185.814 28.1681 185.495 28.8939 185.495 29.8323C185.495 30.505 185.681 31.0539 186.053 31.4788C186.443 31.9037 186.912 32.2312 187.461 32.4614C188.027 32.6738 188.815 32.9217 189.824 33.205C191.046 33.5414 192.028 33.8777 192.772 34.2141C193.515 34.5328 194.153 35.0374 194.684 35.7279C195.215 36.4006 195.481 37.3213 195.481 38.4898C195.481 39.3927 195.242 40.2425 194.764 41.0392C194.286 41.8359 193.577 42.4821 192.639 42.9778C191.701 43.4736 190.594 43.7214 189.32 43.7214Z" fill="#686868"/>
</svg>
